<?xml version="1.0" encoding="utf-8"?>
<!-- Svg Vector Icons : http://www.onlinewebfonts.com/icon -->

<svg xmlns="http://www.w3.org/2000/svg" viewBox="0 0 256 256"  xml:space="preserve">
<path fill="#000000" d="M201.8,54.2h-29.6C171.8,29.7,152.2,10,128,10S84.2,29.7,83.8,54.2H54.2c-8.1,0-14.7,6.6-14.7,14.7v162.3c0,8.1,6.6,14.8,14.7,14.8h147.5c8.1,0,14.8-6.6,14.8-14.8V69C216.5,60.9,209.9,54.2,201.8,54.2z M128,24.7c16,0,29.1,13.2,29.4,29.5H98.6C98.9,37.9,112,24.7,128,24.7z M201.8,231.3H54.2V69h147.5L201.8,231.3L201.8,231.3z"/><path fill="#000000" d="M105.9,98.5h44.3c4,0,7.4-3.3,7.4-7.4c0-4.1-3.3-7.4-7.4-7.4h-44.3c-4.1,0-7.4,3.3-7.4,7.4C98.5,95.2,101.8,98.5,105.9,98.5z"/>
</svg>
